<?xml version="1.0" encoding="UTF-8" standalone="no"?>
<!DOCTYPE svg PUBLIC "-//W3C//DTD SVG 1.1//EN"
 "http://www.w3.org/Graphics/SVG/1.1/DTD/svg11.dtd">
<!-- Generated by graphviz version 2.40.1 (20161225.0304)
 -->
<!-- Title: %3 Pages: 1 -->
<svg width="380pt" height="444pt"
     viewBox="0.00 0.00 380.43 444.00" xmlns="http://www.w3.org/2000/svg" xmlns:xlink="http://www.w3.org/1999/xlink">
    <g id="graph0" class="graph" transform="scale(1 1) rotate(0) translate(4 440)">
<title>%3</title>
        <!-- samples -->
<g id="node1" class="node">
    <title>samples</title>
    <ellipse fill="none" stroke="#000000" cx="144.2428" cy="-199" rx="39.7935" ry="18"/>
    <text text-anchor="middle" x="144.2428" y="-195.3" font-family="Times,serif" font-size="14.00" fill="#000000">
        samples
    </text>
</g>
        <!-- matches -->
        <g id="node5" class="node">
            <title>matches</title>
            <ellipse fill="none" stroke="#0000ff" cx="73.2428" cy="-91" rx="40.0939" ry="18"/>
            <text text-anchor="middle" x="73.2428" y="-87.3" font-family="Times,serif" font-size="14.00" fill="#000000">
                matches
            </text>
</g>
        <!-- samples&#45;&gt;matches -->
<g id="edge1" class="edge">
    <title>samples&#45;&gt;matches</title>
    <path fill="none" stroke="#000000" d="M132.8354,-181.6479C121.294,-164.0919 103.3197,-136.7508 90.1278,-116.6843"/>
    <polygon fill="#000000" stroke="#000000"
             points="93.0398,-114.7424 84.6219,-108.309 87.1906,-118.5877 93.0398,-114.7424"/>
</g>
        <!-- context&#45;paths -->
        <g id="node2" class="node">
            <title>context&#45;paths</title>
            <ellipse fill="none" stroke="#000000" cx="178.2428" cy="-272" rx="57.6901" ry="18"/>
            <text text-anchor="middle" x="178.2428" y="-268.3" font-family="Times,serif" font-size="14.00"
                  fill="#000000">context&#45;paths
            </text>
</g>
        <!-- context&#45;paths&#45;&gt;samples -->
<g id="edge2" class="edge">
    <title>context&#45;paths&#45;&gt;samples</title>
    <path fill="none" stroke="#000000" d="M169.8383,-253.9551C165.9268,-245.5569 161.1915,-235.39 156.8628,-226.096"/>
    <polygon fill="#000000" stroke="#000000"
             points="159.9455,-224.4246 152.5506,-216.8374 153.6,-227.3801 159.9455,-224.4246"/>
</g>
        <!-- seeds -->
<g id="node3" class="node">
    <title>seeds</title>
    <ellipse fill="none" stroke="#000000" cx="212.2428" cy="-145" rx="29.795" ry="18"/>
    <text text-anchor="middle" x="212.2428" y="-141.3" font-family="Times,serif" font-size="14.00" fill="#000000">
        seeds
    </text>
</g>
        <!-- context&#45;paths&#45;&gt;seeds -->
<g id="edge3" class="edge">
    <title>context&#45;paths&#45;&gt;seeds</title>
    <path fill="none" stroke="#000000"
          d="M183.2806,-253.6769C186.2099,-242.9859 189.9599,-229.2359 193.2428,-217 197.1287,-202.5169 201.3938,-186.377 204.8968,-173.055"/>
    <polygon fill="#000000" stroke="#000000"
             points="208.3665,-173.6216 207.5209,-163.0606 201.596,-171.8439 208.3665,-173.6216"/>
</g>
        <!-- patterns -->
<g id="node4" class="node">
    <title>patterns</title>
    <ellipse fill="none" stroke="#0000ff" cx="156.2428" cy="-18" rx="38.1938" ry="18"/>
    <text text-anchor="middle" x="156.2428" y="-14.3" font-family="Times,serif" font-size="14.00" fill="#000000">
        patterns
    </text>
</g>
        <!-- seeds&#45;&gt;patterns -->
<g id="edge4" class="edge">
    <title>seeds&#45;&gt;patterns</title>
    <path fill="none" stroke="#000000" d="M204.4562,-127.3412C195.0641,-106.0412 179.1749,-70.0067 168.2191,-45.1606"/>
    <polygon fill="#000000" stroke="#000000"
             points="171.3809,-43.6561 164.1437,-35.9182 164.9759,-46.4804 171.3809,-43.6561"/>
    <text text-anchor="middle" x="213.7428" y="-87.3" font-family="Times,serif" font-size="14.00" fill="#000000">
        cluster
    </text>
</g>
        <!-- patterns&#45;&gt;samples -->
<g id="edge5" class="edge">
    <title>patterns&#45;&gt;samples</title>
    <path fill="none" stroke="#000000"
          d="M153.5101,-36.2913C152.0158,-46.9717 150.2658,-60.7217 149.2428,-73 146.4594,-106.4067 145.2168,-144.9292 144.6677,-170.4954"/>
    <polygon fill="#000000" stroke="#000000"
             points="141.1663,-170.5406 144.4723,-180.6064 148.165,-170.6759 141.1663,-170.5406"/>
    <text text-anchor="middle" x="162.7428" y="-87.3" font-family="Times,serif" font-size="14.00" fill="#000000">
        filter
    </text>
</g>
        <!-- matches&#45;&gt;patterns -->
<g id="edge6" class="edge">
    <title>matches&#45;&gt;patterns</title>
    <path fill="none" stroke="#ff0000" d="M91.6632,-74.7989C103.0245,-64.8064 117.7698,-51.8377 130.3016,-40.8157"/>
    <polygon fill="#ff0000" stroke="#ff0000"
             points="132.962,-43.137 138.1595,-33.9046 128.339,-37.8808 132.962,-43.137"/>
</g>
        <!-- results -->
        <g id="node9" class="node">
            <title>results</title>
            <ellipse fill="none" stroke="#000000" cx="66.2428" cy="-18" rx="33.5952" ry="18"/>
            <text text-anchor="middle" x="66.2428" y="-14.3" font-family="Times,serif" font-size="14.00" fill="#000000">
                results
            </text>
        </g>
        <!-- matches&#45;&gt;results -->
<g id="edge7" class="edge">
    <title>matches&#45;&gt;results</title>
    <path fill="none" stroke="#000000" d="M71.5125,-72.9551C70.7384,-64.8828 69.8076,-55.1764 68.9451,-46.1817"/>
    <polygon fill="#000000" stroke="#000000"
             points="72.4161,-45.7106 67.9775,-36.0904 65.4481,-46.3788 72.4161,-45.7106"/>
</g>
<!-- text&#45;sources -->
        <g id="node6" class="node">
<title>text&#45;sources</title>
            <ellipse fill="none" stroke="#00ff00" cx="178.2428" cy="-418" rx="53.0913" ry="18"/>
            <text text-anchor="middle" x="178.2428" y="-414.3" font-family="Times,serif" font-size="14.00"
                  fill="#000000">text&#45;sources
            </text>
</g>
<!-- concept&#45;annotations -->
        <g id="node7" class="node">
<title>concept&#45;annotations</title>
            <ellipse fill="none" stroke="#000000" cx="81.2428" cy="-345" rx="81.4863" ry="18"/>
            <text text-anchor="middle" x="81.2428" y="-341.3" font-family="Times,serif" font-size="14.00"
                  fill="#000000">concept&#45;annotations
            </text>
</g>
<!-- text&#45;sources&#45;&gt;concept&#45;annotations -->
<g id="edge9" class="edge">
<title>text&#45;sources&#45;&gt;concept&#45;annotations</title>
    <path fill="none" stroke="#000000" d="M156.232,-401.4352C143.3356,-391.7296 126.8347,-379.3114 112.5965,-368.5961"/>
    <polygon fill="#000000" stroke="#000000"
             points="114.6139,-365.7339 104.5191,-362.5172 110.4046,-371.327 114.6139,-365.7339"/>
</g>
<!-- dependency&#45;annotations -->
        <g id="node8" class="node">
<title>dependency&#45;annotations</title>
            <ellipse fill="none" stroke="#000000" cx="276.2428" cy="-345" rx="96.3833" ry="18"/>
            <text text-anchor="middle" x="276.2428" y="-341.3" font-family="Times,serif" font-size="14.00"
                  fill="#000000">dependency&#45;annotations
            </text>
</g>
<!-- text&#45;sources&#45;&gt;dependency&#45;annotations -->
<g id="edge8" class="edge">
<title>text&#45;sources&#45;&gt;dependency&#45;annotations</title>
    <path fill="none" stroke="#000000"
          d="M200.4805,-401.4352C213.5099,-391.7296 230.1809,-379.3114 244.5659,-368.5961"/>
    <polygon fill="#000000" stroke="#000000"
             points="246.7977,-371.2979 252.7265,-362.5172 242.616,-365.6842 246.7977,-371.2979"/>
</g>
<!-- concept&#45;annotations&#45;&gt;context&#45;paths -->
<g id="edge10" class="edge">
<title>concept&#45;annotations&#45;&gt;context&#45;paths</title>
    <path fill="none" stroke="#000000" d="M104.2304,-327.7C117.3435,-317.8314 133.935,-305.345 148.0841,-294.6968"/>
    <polygon fill="#000000" stroke="#000000"
             points="150.2023,-297.4831 156.0878,-288.6733 145.9931,-291.89 150.2023,-297.4831"/>
</g>
<!-- dependency&#45;annotations&#45;&gt;context&#45;paths -->
<g id="edge11" class="edge">
<title>dependency&#45;annotations&#45;&gt;context&#45;paths</title>
    <path fill="none" stroke="#000000"
          d="M252.5197,-327.3287C239.4785,-317.6143 223.1477,-305.4496 209.1223,-295.0021"/>
    <polygon fill="#000000" stroke="#000000"
             points="210.848,-291.9232 200.7375,-288.7563 206.6663,-297.5369 210.848,-291.9232"/>
</g>
</g>
</svg>
