<?xml version="1.0" encoding="UTF-8" standalone="no"?>
<!DOCTYPE svg PUBLIC "-//W3C//DTD SVG 1.1//EN"
 "http://www.w3.org/Graphics/SVG/1.1/DTD/svg11.dtd">
<!-- Generated by graphviz version 2.40.1 (20161225.0304)
 -->
<!-- Title: %3 Pages: 1 -->
<svg width="1353pt" height="333pt"
     viewBox="0.00 0.00 1353.43 333.00" xmlns="http://www.w3.org/2000/svg" xmlns:xlink="http://www.w3.org/1999/xlink">
    <g id="graph0" class="graph" transform="scale(1 1) rotate(0) translate(4 329)">
<title>%3</title>
<!-- mice -->
<g id="node1" class="node">
<title>mice</title>
    <ellipse fill="none" stroke="#000000" cx="1035.1499" cy="-37" rx="28.6953" ry="18"/>
    <text text-anchor="middle" x="1035.1499" y="-33.3" font-family="Times,serif" font-size="14.00" fill="#000000">mice
    </text>
</g>
<!-- mammals -->
<g id="node8" class="node">
<title>mammals</title>
    <ellipse fill="none" stroke="#000000" cx="1175.0928" cy="-72" rx="46.2923" ry="18"/>
    <text text-anchor="middle" x="1175.0928" y="-68.3" font-family="Times,serif" font-size="14.00" fill="#000000">
        mammals
    </text>
</g>
<!-- mice&#45;&gt;mammals -->
<g id="edge2" class="edge">
<title>mice&#45;&gt;mammals</title>
    <path fill="none" stroke="#000000" d="M1061.8015,-43.6656C1080.0257,-48.2235 1104.7136,-54.398 1126.3916,-59.8197"/>
    <polygon fill="#000000" stroke="#000000"
             points="1125.5554,-63.2183 1136.1059,-62.2493 1127.2539,-56.4275 1125.5554,-63.2183"/>
    <text text-anchor="middle" x="1098.9469" y="-59.8" font-family="Times,serif" font-size="14.00" fill="#000000">conj
    </text>
</g>
<!-- and -->
<g id="node11" class="node">
<title>and</title>
    <ellipse fill="none" stroke="#000000" cx="1175.0928" cy="-18" rx="27" ry="18"/>
    <text text-anchor="middle" x="1175.0928" y="-14.3" font-family="Times,serif" font-size="14.00" fill="#000000">and
    </text>
</g>
<!-- mice&#45;&gt;and -->
<g id="edge1" class="edge">
<title>mice&#45;&gt;and</title>
    <path fill="none" stroke="#000000"
          d="M1062.4914,-31.2498C1070.3611,-29.723 1078.9734,-28.1744 1086.9469,-27 1103.5161,-24.5596 1121.935,-22.5671 1137.6335,-21.083"/>
    <polygon fill="#000000" stroke="#000000"
             points="1138.3697,-24.5305 1148.0108,-20.1374 1137.7345,-17.5593 1138.3697,-24.5305"/>
    <text text-anchor="middle" x="1098.9469" y="-30.8" font-family="Times,serif" font-size="14.00" fill="#000000">cc
    </text>
</g>
<!-- pressure -->
<g id="node2" class="node">
<title>pressure</title>
    <ellipse fill="none" stroke="#000000" cx="728.5652" cy="-118" rx="40.0939" ry="18"/>
    <text text-anchor="middle" x="728.5652" y="-114.3" font-family="Times,serif" font-size="14.00" fill="#000000">
        pressure
    </text>
</g>
<!-- &#45;RRB&#45; -->
<g id="node7" class="node">
<title>&#45;RRB&#45;</title>
    <ellipse fill="none" stroke="#000000" cx="885.6073" cy="-199" rx="34.394" ry="18"/>
    <text text-anchor="middle" x="885.6073" y="-195.3" font-family="Times,serif" font-size="14.00" fill="#000000">&#45;RRB&#45;</text>
</g>
<!-- pressure&#45;&gt;&#45;RRB&#45; -->
<g id="edge5" class="edge">
<title>pressure&#45;&gt;&#45;RRB&#45;</title>
    <path fill="none" stroke="#000000"
          d="M752.067,-132.8763C762.5676,-139.3226 775.1854,-146.7972 786.8616,-153 807.2932,-163.8541 830.7465,-174.8388 849.668,-183.3507"/>
    <polygon fill="#000000" stroke="#000000"
             points="848.2755,-186.562 858.8339,-187.4407 851.128,-180.1695 848.2755,-186.562"/>
    <text text-anchor="middle" x="802.8616" y="-171.8" font-family="Times,serif" font-size="14.00" fill="#000000">
        punct
    </text>
</g>
<!-- IOP -->
<g id="node12" class="node">
<title>IOP</title>
    <ellipse fill="none" stroke="#000000" cx="885.6073" cy="-145" rx="27" ry="18"/>
    <text text-anchor="middle" x="885.6073" y="-141.3" font-family="Times,serif" font-size="14.00" fill="#000000">IOP
    </text>
</g>
<!-- pressure&#45;&gt;IOP -->
<g id="edge4" class="edge">
<title>pressure&#45;&gt;IOP</title>
    <path fill="none" stroke="#000000" d="M766.1807,-124.4672C791.2706,-128.7808 824.0913,-134.4237 848.9756,-138.702"/>
    <polygon fill="#000000" stroke="#000000"
             points="848.6603,-142.199 859.1088,-140.4442 849.8464,-135.3003 848.6603,-142.199"/>
    <text text-anchor="middle" x="802.8616" y="-137.8" font-family="Times,serif" font-size="14.00" fill="#000000">
        appos
    </text>
</g>
<!-- intraocular -->
<g id="node16" class="node">
<title>intraocular</title>
    <ellipse fill="none" stroke="#000000" cx="885.6073" cy="-91" rx="48.9926" ry="18"/>
    <text text-anchor="middle" x="885.6073" y="-87.3" font-family="Times,serif" font-size="14.00" fill="#000000">
        intraocular
    </text>
</g>
<!-- pressure&#45;&gt;intraocular -->
<g id="edge3" class="edge">
<title>pressure&#45;&gt;intraocular</title>
    <path fill="none" stroke="#000000"
          d="M760.3302,-106.8792C768.8559,-104.2569 778.1329,-101.7257 786.8616,-100 799.7806,-97.4459 813.7962,-95.6146 827.0995,-94.3021"/>
    <polygon fill="#000000" stroke="#000000"
             points="827.4602,-97.7839 837.1038,-93.3963 826.8289,-90.8124 827.4602,-97.7839"/>
    <text text-anchor="middle" x="802.8616" y="-103.8" font-family="Times,serif" font-size="14.00" fill="#000000">amod
    </text>
</g>
<!-- in -->
<g id="node19" class="node">
<title>in</title>
    <ellipse fill="none" stroke="#000000" cx="885.6073" cy="-37" rx="27" ry="18"/>
    <text text-anchor="middle" x="885.6073" y="-33.3" font-family="Times,serif" font-size="14.00" fill="#000000">in
    </text>
</g>
<!-- pressure&#45;&gt;in -->
<g id="edge6" class="edge">
<title>pressure&#45;&gt;in</title>
    <path fill="none" stroke="#000000"
          d="M748.599,-102.1959C759.5178,-94.0312 773.4975,-84.2819 786.8616,-77 807.608,-65.6956 832.2351,-55.7136 851.7052,-48.5487"/>
    <polygon fill="#000000" stroke="#000000"
             points="853.1474,-51.7494 861.3689,-45.0666 850.7745,-45.1638 853.1474,-51.7494"/>
    <text text-anchor="middle" x="802.8616" y="-80.8" font-family="Times,serif" font-size="14.00" fill="#000000">prep
    </text>
</g>
<!-- factors -->
<g id="node3" class="node">
<title>factors</title>
    <ellipse fill="none" stroke="#000000" cx="441.3293" cy="-145" rx="34.394" ry="18"/>
    <text text-anchor="middle" x="441.3293" y="-141.3" font-family="Times,serif" font-size="14.00" fill="#000000">
        factors
    </text>
</g>
<!-- genetic -->
<g id="node6" class="node">
<title>genetic</title>
    <ellipse fill="none" stroke="#000000" cx="585.0225" cy="-172" rx="36.2938" ry="18"/>
    <text text-anchor="middle" x="585.0225" y="-168.3" font-family="Times,serif" font-size="14.00" fill="#000000">
        genetic
    </text>
</g>
<!-- factors&#45;&gt;genetic -->
<g id="edge7" class="edge">
<title>factors&#45;&gt;genetic</title>
    <path fill="none" stroke="#000000"
          d="M473.9355,-151.1267C493.7363,-154.8473 519.2731,-159.6457 540.8687,-163.7035"/>
    <polygon fill="#000000" stroke="#000000"
             points="540.3197,-167.1615 550.7941,-165.5685 541.6124,-160.2819 540.3197,-167.1615"/>
    <text text-anchor="middle" x="509.2762" y="-164.8" font-family="Times,serif" font-size="14.00" fill="#000000">amod
    </text>
</g>
<!-- affecting -->
<g id="node13" class="node">
<title>affecting</title>
    <ellipse fill="none" stroke="#000000" cx="585.0225" cy="-118" rx="42.4939" ry="18"/>
    <text text-anchor="middle" x="585.0225" y="-114.3" font-family="Times,serif" font-size="14.00" fill="#000000">
        affecting
    </text>
</g>
<!-- factors&#45;&gt;affecting -->
<g id="edge8" class="edge">
<title>factors&#45;&gt;affecting</title>
    <path fill="none" stroke="#000000"
          d="M473.9355,-138.8733C492.3658,-135.4102 515.7656,-131.0134 536.3312,-127.1491"/>
    <polygon fill="#000000" stroke="#000000"
             points="536.9835,-130.5879 546.1652,-125.3013 535.6908,-123.7083 536.9835,-130.5879"/>
    <text text-anchor="middle" x="509.2762" y="-138.8" font-family="Times,serif" font-size="14.00" fill="#000000">acl
    </text>
</g>
<!-- is -->
<g id="node4" class="node">
<title>is</title>
    <ellipse fill="none" stroke="#000000" cx="315.3351" cy="-307" rx="27" ry="18"/>
    <text text-anchor="middle" x="315.3351" y="-303.3" font-family="Times,serif" font-size="14.00" fill="#000000">is
    </text>
</g>
<!-- other -->
<g id="node5" class="node">
<title>other</title>
    <ellipse fill="none" stroke="#000000" cx="1316.8362" cy="-72" rx="28.6953" ry="18"/>
    <text text-anchor="middle" x="1316.8362" y="-68.3" font-family="Times,serif" font-size="14.00" fill="#000000">
        other
    </text>
</g>
<!-- mammals&#45;&gt;other -->
<g id="edge9" class="edge">
<title>mammals&#45;&gt;other</title>
    <path fill="none" stroke="#000000" d="M1221.5049,-72C1239.6914,-72 1260.3271,-72 1277.7371,-72"/>
    <polygon fill="#000000" stroke="#000000"
             points="1278.1097,-75.5001 1288.1097,-72 1278.1096,-68.5001 1278.1097,-75.5001"/>
    <text text-anchor="middle" x="1254.7388" y="-75.8" font-family="Times,serif" font-size="14.00" fill="#000000">amod
    </text>
</g>
<!-- Little -->
<g id="node9" class="node">
<title>Little</title>
    <ellipse fill="none" stroke="#000000" cx="315.3351" cy="-253" rx="29.795" ry="18"/>
    <text text-anchor="middle" x="315.3351" y="-249.3" font-family="Times,serif" font-size="14.00" fill="#000000">
        Little
    </text>
</g>
<!-- . -->
<g id="node10" class="node">
<title>.</title>
    <ellipse fill="none" stroke="#000000" cx="315.3351" cy="-199" rx="27" ry="18"/>
    <text text-anchor="middle" x="315.3351" y="-195.3" font-family="Times,serif" font-size="14.00" fill="#000000">.
    </text>
</g>
<!-- &#45;LRB&#45; -->
<g id="node15" class="node">
<title>&#45;LRB&#45;</title>
    <ellipse fill="none" stroke="#000000" cx="1035.1499" cy="-145" rx="33.5952" ry="18"/>
    <text text-anchor="middle" x="1035.1499" y="-141.3" font-family="Times,serif" font-size="14.00" fill="#000000">&#45;LRB&#45;</text>
</g>
<!-- IOP&#45;&gt;&#45;LRB&#45; -->
<g id="edge10" class="edge">
<title>IOP&#45;&gt;&#45;LRB&#45;</title>
    <path fill="none" stroke="#000000" d="M912.6883,-145C934.5112,-145 965.6361,-145 991.0457,-145"/>
    <polygon fill="#000000" stroke="#000000"
             points="991.1836,-148.5001 1001.1835,-145 991.1835,-141.5001 991.1836,-148.5001"/>
    <text text-anchor="middle" x="967.8529" y="-148.8" font-family="Times,serif" font-size="14.00" fill="#000000">
        punct
    </text>
</g>
<!-- affecting&#45;&gt;pressure -->
<g id="edge11" class="edge">
<title>affecting&#45;&gt;pressure</title>
    <path fill="none" stroke="#000000" d="M627.3137,-118C643.2021,-118 661.4235,-118 677.9897,-118"/>
    <polygon fill="#000000" stroke="#000000"
             points="678.0551,-121.5001 688.055,-118 678.055,-114.5001 678.0551,-121.5001"/>
    <text text-anchor="middle" x="657.7687" y="-121.8" font-family="Times,serif" font-size="14.00" fill="#000000">dobj
    </text>
</g>
<!-- ROOT -->
<g id="node14" class="node">
<title>ROOT</title>
    <ellipse fill="none" stroke="#000000" cx="34.4469" cy="-226" rx="34.394" ry="18"/>
    <text text-anchor="middle" x="34.4469" y="-222.3" font-family="Times,serif" font-size="14.00" fill="#000000">ROOT
    </text>
</g>
<!-- known -->
<g id="node18" class="node">
<title>known</title>
    <ellipse fill="none" stroke="#000000" cx="161.3408" cy="-226" rx="34.394" ry="18"/>
    <text text-anchor="middle" x="161.3408" y="-222.3" font-family="Times,serif" font-size="14.00" fill="#000000">
        known
    </text>
</g>
<!-- ROOT&#45;&gt;known -->
<g id="edge12" class="edge">
<title>ROOT&#45;&gt;known</title>
    <path fill="none" stroke="#000000" d="M69.1213,-226C83.669,-226 100.7772,-226 116.2818,-226"/>
    <polygon fill="#000000" stroke="#000000"
             points="116.7085,-229.5001 126.7084,-226 116.7084,-222.5001 116.7085,-229.5001"/>
    <text text-anchor="middle" x="97.8939" y="-229.8" font-family="Times,serif" font-size="14.00" fill="#000000">root
    </text>
</g>
<!-- about -->
<g id="node17" class="node">
<title>about</title>
    <ellipse fill="none" stroke="#000000" cx="315.3351" cy="-145" rx="30.5947" ry="18"/>
    <text text-anchor="middle" x="315.3351" y="-141.3" font-family="Times,serif" font-size="14.00" fill="#000000">
        about
    </text>
</g>
<!-- about&#45;&gt;factors -->
<g id="edge13" class="edge">
<title>about&#45;&gt;factors</title>
    <path fill="none" stroke="#000000" d="M346.1567,-145C361.3601,-145 379.9811,-145 396.708,-145"/>
    <polygon fill="#000000" stroke="#000000"
             points="396.8306,-148.5001 406.8305,-145 396.8305,-141.5001 396.8306,-148.5001"/>
    <text text-anchor="middle" x="376.3824" y="-148.8" font-family="Times,serif" font-size="14.00" fill="#000000">pobj
    </text>
</g>
<!-- known&#45;&gt;is -->
<g id="edge15" class="edge">
<title>known&#45;&gt;is</title>
    <path fill="none" stroke="#000000"
          d="M180.0703,-241.1642C189.7784,-248.6045 202.0368,-257.3685 213.7878,-264 235.5674,-276.291 261.5595,-287.2344 281.7947,-295.0053"/>
    <polygon fill="#000000" stroke="#000000"
             points="280.6303,-298.3067 291.2222,-298.5573 283.0984,-291.7562 280.6303,-298.3067"/>
    <text text-anchor="middle" x="240.2878" y="-291.8" font-family="Times,serif" font-size="14.00" fill="#000000">
        auxpass
    </text>
</g>
<!-- known&#45;&gt;Little -->
<g id="edge14" class="edge">
<title>known&#45;&gt;Little</title>
    <path fill="none" stroke="#000000" d="M193.999,-231.726C218.1318,-235.9572 251.0796,-241.734 276.5522,-246.2002"/>
    <polygon fill="#000000" stroke="#000000"
             points="276.1584,-249.6844 286.6126,-247.9641 277.3673,-242.7896 276.1584,-249.6844"/>
    <text text-anchor="middle" x="240.2878" y="-248.8" font-family="Times,serif" font-size="14.00" fill="#000000">
        nsubjpass
    </text>
</g>
<!-- known&#45;&gt;. -->
<g id="edge17" class="edge">
<title>known&#45;&gt;.</title>
    <path fill="none" stroke="#000000" d="M193.999,-220.274C218.8301,-215.9203 252.9939,-209.9303 278.7445,-205.4155"/>
    <polygon fill="#000000" stroke="#000000"
             points="279.6172,-208.8159 288.8625,-203.6415 278.4083,-201.9211 279.6172,-208.8159"/>
    <text text-anchor="middle" x="240.2878" y="-220.8" font-family="Times,serif" font-size="14.00" fill="#000000">
        punct
    </text>
</g>
<!-- known&#45;&gt;about -->
<g id="edge16" class="edge">
<title>known&#45;&gt;about</title>
    <path fill="none" stroke="#000000"
          d="M180.6362,-210.9487C190.2838,-203.8019 202.3226,-195.4378 213.7878,-189 234.9517,-177.1163 259.9561,-166.2466 279.857,-158.2839"/>
    <polygon fill="#000000" stroke="#000000"
             points="281.1533,-161.5351 289.1774,-154.6168 278.5903,-155.0212 281.1533,-161.5351"/>
    <text text-anchor="middle" x="240.2878" y="-192.8" font-family="Times,serif" font-size="14.00" fill="#000000">prep
    </text>
</g>
<!-- in&#45;&gt;mice -->
<g id="edge18" class="edge">
<title>in&#45;&gt;mice</title>
    <path fill="none" stroke="#000000" d="M912.6883,-37C936.0943,-37 970.2008,-37 996.4795,-37"/>
    <polygon fill="#000000" stroke="#000000"
             points="996.4874,-40.5001 1006.4873,-37 996.4873,-33.5001 996.4874,-40.5001"/>
    <text text-anchor="middle" x="967.8529" y="-40.8" font-family="Times,serif" font-size="14.00" fill="#000000">pobj
    </text>
</g>
</g>
</svg>
